<?xml version="1.0" encoding="UTF-8" standalone="no"?>
<!-- Created with Inkscape (http://www.inkscape.org/) -->

<svg
   version="1.1"
   id="svg2"
   width="74.666664"
   height="74.666664"
   viewBox="0 0 74.666664 74.666664"
   xmlns="http://www.w3.org/2000/svg"
   xmlns:svg="http://www.w3.org/2000/svg">
  <defs
     id="defs6">
    <clipPath
       clipPathUnits="userSpaceOnUse"
       id="clipPath18">
      <path
         d="m 15.128,44 c -1.784,0 -2.43,-0.185 -3.082,-0.535 v 0 c -0.651,-0.348 -1.163,-0.86 -1.511,-1.511 v 0 C 10.185,41.302 10,40.656 10,38.872 v 0 -13.744 c 0,-1.783 0.185,-2.43 0.535,-3.082 v 0 c 0.348,-0.651 0.86,-1.163 1.511,-1.512 v 0 C 12.698,20.185 13.344,20 15.128,20 v 0 h 4.1 l 1.713,2 h -6.377 c -0.891,0 -1.215,0.093 -1.541,0.268 v 0 c -0.326,0.173 -0.581,0.429 -0.756,0.756 v 0 C 12.092,23.349 12,23.673 12,24.564 v 0 14.872 c 0,0.891 0.092,1.215 0.267,1.541 v 0 c 0.175,0.326 0.43,0.581 0.756,0.756 v 0 C 13.349,41.908 13.673,42 14.564,42 v 0 h 26.873 c 0.89,0 1.214,-0.092 1.54,-0.267 v 0 c 0.326,-0.175 0.581,-0.43 0.756,-0.756 v 0 C 43.907,40.651 44,40.327 44,39.436 v 0 -14.872 c 0,-0.891 -0.093,-1.215 -0.267,-1.54 v 0 c -0.175,-0.327 -0.43,-0.583 -0.756,-0.756 v 0 C 42.651,22.093 42.327,22 41.437,22 v 0 h -6.378 l 1.713,-2 h 4.1 c 1.784,0 2.43,0.185 3.082,0.534 v 0 c 0.652,0.349 1.163,0.861 1.512,1.512 v 0 C 45.814,22.698 46,23.345 46,25.128 v 0 13.744 c 0,1.784 -0.186,2.43 -0.534,3.082 v 0 c -0.349,0.651 -0.86,1.163 -1.512,1.511 v 0 C 43.302,43.815 42.656,44 40.872,44 v 0 z M 27.374,25.506 16.693,13.209 C 16.286,12.74 16.613,12 17.23,12 v 0 h 21.54 c 0.617,0 0.945,0.74 0.537,1.209 v 0 L 28.625,25.506 C 28.459,25.697 28.229,25.793 28,25.793 v 0 c -0.23,0 -0.46,-0.096 -0.626,-0.287"
         id="path16" />
    </clipPath>
  </defs>
  <g
     id="g10"
     transform="matrix(1.3333333,0,0,-1.3333333,0,74.666667)">
    <g
       id="g12">
      <g
         id="g14"
         clip-path="url(#clipPath18)">
        <path
           d="M 5,7 H 51 V 49 H 5 Z"
           style="fill:#000000;fill-opacity:1;fill-rule:nonzero;stroke:none"
           id="path20" />
      </g>
    </g>
  </g>
</svg>
