<?xml version="1.0" encoding="UTF-8" standalone="no"?>
<!-- Created with Inkscape (http://www.inkscape.org/) -->

<svg
   version="1.1"
   id="svg2"
   width="74.666664"
   height="74.666664"
   viewBox="0 0 74.666664 74.666664"
   xmlns="http://www.w3.org/2000/svg"
   xmlns:svg="http://www.w3.org/2000/svg">
  <defs
     id="defs6">
    <clipPath
       clipPathUnits="userSpaceOnUse"
       id="clipPath18">
      <path
         d="M 27.374,23.506 16.693,11.209 C 16.286,10.74 16.613,10 17.23,10 v 0 h 21.54 c 0.617,0 0.945,0.74 0.537,1.209 v 0 L 28.625,23.506 C 28.459,23.697 28.229,23.793 28,23.793 v 0 c -0.23,0 -0.46,-0.096 -0.626,-0.287"
         id="path16" />
    </clipPath>
    <clipPath
       clipPathUnits="userSpaceOnUse"
       id="clipPath28">
      <path
         d="m 10,28 c 0,-5.539 2.507,-10.49 6.443,-13.792 v 0 c 0.022,-0.018 0.048,-0.039 0.078,-0.065 v 0 c 0.085,-0.069 0.208,-0.058 0.279,0.025 v 0 c 0.026,0.029 0.046,0.054 0.063,0.074 v 0 c 0.399,0.464 0.704,0.821 0.917,1.071 v 0 c 0.018,0.019 0.039,0.044 0.062,0.072 v 0 c 0.073,0.083 0.063,0.209 -0.021,0.282 v 0 c -0.001,0 -0.002,10e-4 -0.003,0.002 v 0 c -0.041,0.034 -0.075,0.062 -0.103,0.086 v 0 C 14.224,18.689 12,23.082 12,28 v 0 c 0,8.837 7.163,16 16,16 v 0 c 8.837,0 16,-7.163 16,-16 v 0 c 0,-4.96 -2.262,-9.387 -5.805,-12.321 v 0 c -0.014,-0.012 -0.03,-0.025 -0.05,-0.042 v 0 H 38.144 C 38.08,15.585 38.07,15.49 38.123,15.426 v 0 c 0.001,-10e-4 0.001,-0.002 0.002,-0.003 v 0 c 0.017,-0.019 0.031,-0.036 0.042,-0.049 v 0 c 0.236,-0.276 0.581,-0.679 1.034,-1.208 v 0 c 0.009,-0.011 0.018,-0.023 0.03,-0.035 v 0 c 0.053,-0.062 0.147,-0.07 0.21,-0.019 v 0 c 0.011,0.01 0.022,0.018 0.03,0.026 v 0 C 43.457,17.439 46,22.421 46,28 v 0 c 0,9.942 -8.058,18 -18,18 v 0 C 18.059,46 10,37.942 10,28 m 5,0 c 0,-4.022 1.833,-7.611 4.702,-9.995 v 0 c 0.021,-0.018 0.046,-0.039 0.076,-0.064 v 0 h -10e-4 c 0.085,-0.068 0.208,-0.057 0.28,0.026 v 0 c 0.012,0.014 0.024,0.028 0.034,0.04 v 0 c 0.383,0.448 0.677,0.791 0.881,1.029 v 0 c 0.039,0.046 0.092,0.109 0.159,0.185 v 0 c 0.054,0.064 0.047,0.159 -0.016,0.213 v 0 c -0.002,10e-4 -0.003,0.002 -0.005,0.002 v 0 c -0.038,0.032 -0.071,0.058 -0.095,0.079 v 0 C 18.567,21.533 17,24.579 17,28 v 0 c 0,6.075 4.925,11 11,11 v 0 c 6.075,0 11,-4.925 11,-11 v 0 c 0,-3.398 -1.546,-6.428 -3.967,-8.446 v 0 c -0.036,-0.029 -0.084,-0.07 -0.144,-0.118 v 0 c -0.064,-0.051 -0.074,-0.146 -0.023,-0.21 v 0 c 10e-4,-10e-4 0.002,-0.002 0.003,-0.005 v 0 c 0.06,-0.069 0.107,-0.124 0.143,-0.165 v 0 c 0.206,-0.242 0.503,-0.588 0.89,-1.041 v 0 c 0.019,-0.022 0.043,-0.05 0.074,-0.085 v 0 h -10e-4 c 0.053,-0.061 0.145,-0.07 0.209,-0.019 v 0 c 0.046,0.039 0.085,0.069 0.115,0.094 v 0 C 39.168,20.389 41,23.978 41,28 v 0 c 0,7.18 -5.82,13 -13,13 v 0 C 20.82,41 15,35.18 15,28 m 5,0 c 0,-2.39 1.053,-4.528 2.714,-5.994 v 0 c 0.077,-0.067 0.184,-0.156 0.322,-0.266 v 0 c 0.083,-0.067 0.207,-0.055 0.276,0.026 v 0 c 0.081,0.093 0.143,0.167 0.188,0.218 v 0 c 0.369,0.432 0.657,0.769 0.864,1.009 v 0 c 0.004,0.006 0.009,0.011 0.013,0.016 v 0 c 0.059,0.068 0.051,0.171 -0.017,0.228 v 0 c -0.002,0.002 -0.004,0.005 -0.007,0.006 v 0 C 22.925,24.339 22,26.059 22,28 v 0 c 0,3.313 2.687,6 6,6 v 0 c 3.314,0 6,-2.687 6,-6 v 0 c 0,-1.935 -0.92,-3.653 -2.342,-4.749 v 0 c -0.077,-0.059 -0.091,-0.168 -0.032,-0.244 v 0 C 31.627,23.004 31.629,23.002 31.63,23 v 0 c 0.004,-0.004 0.007,-0.007 0.009,-0.01 v 0 c 0.374,-0.435 0.659,-0.768 0.856,-0.998 v 0 c 0.048,-0.056 0.112,-0.132 0.192,-0.226 v 0 c 0.071,-0.081 0.193,-0.093 0.278,-0.026 v 0 c 0.131,0.105 0.233,0.189 0.306,0.253 v 0 C 34.942,23.459 36,25.603 36,28 v 0 c 0,4.418 -3.582,8 -8,8 v 0 c -4.418,0 -8,-3.582 -8,-8"
         id="path26" />
    </clipPath>
  </defs>
  <g
     id="g10"
     transform="matrix(1.3333333,0,0,-1.3333333,0,74.666667)">
    <g
       id="g12">
      <g
         id="g14"
         clip-path="url(#clipPath18)">
        <path
           d="M 11.513,5 H 44.488 V 28.793 H 11.513 Z"
           style="fill:#000000;fill-opacity:1;fill-rule:nonzero;stroke:none"
           id="path20" />
      </g>
    </g>
    <g
       id="g22">
      <g
         id="g24"
         clip-path="url(#clipPath28)">
        <path
           d="M 5,9.078 H 51 V 51 H 5 Z"
           style="fill:#000000;fill-opacity:1;fill-rule:nonzero;stroke:none"
           id="path30" />
      </g>
    </g>
  </g>
</svg>
