<svg width="128" height="128" version="1.1" viewBox="0 0 33.867 33.867" xmlns="http://www.w3.org/2000/svg">
 <g transform="translate(-99.467 -110.98)">
  <rect x="101.95" y="113.45" width="28.893" height="28.92" ry="2.271" style="fill:#ccc;opacity:.97145;stroke-width:0"/>
  <rect x="104.95" y="126.02" width="24.541" height="11.682" rx="2.0392" ry="2.0392" style="fill:#666;opacity:.97145;stroke-width:0"/>
  <rect x="106.51" y="126.82" width="21.195" height="10.204" rx=".99674" ry=".80241" style="fill:#808080;opacity:.97145;stroke-width:0"/>
  <rect x="124.88" y="137.23" width="1.1939" height=".28233" rx=".034892" ry=".034892" style="fill:#0f0;opacity:.97145;stroke-width:0"/>
  <rect x="103.09" y="118.32" width="8.0403" height="12.589" rx="2.0392" ry="2.0392" style="fill:#666;opacity:.97145;stroke-width:0"/>
  <rect x="103.6" y="119.18" width="6.9442" height="10.996" rx=".99674" ry=".80241" style="fill:#808080;opacity:.97145;stroke-width:0"/>
  <rect x="109.62" y="130.4" width=".39117" height=".30426" rx=".034892" ry=".034892" style="fill:#0f0;opacity:.97145;stroke-width:0"/>
  <rect x="112.96" y="115.01" width="13.721" height="13.543" rx="2.0392" ry="2.0392" style="fill:#666;opacity:.97145;stroke-width:0"/>
  <rect x="113.83" y="115.94" width="11.85" height="11.829" rx=".99674" ry=".80241" style="fill:#808080;opacity:.97145;stroke-width:0"/>
  <rect x="124.1" y="128.01" width=".66754" height=".32731" rx=".034892" ry=".034892" style="fill:#0f0;opacity:.97145;stroke-width:0"/>
 </g>
</svg>
