<svg width="128" height="128" version="1.1" viewBox="0 0 33.867 33.867" xmlns="http://www.w3.org/2000/svg">
 <g transform="matrix(1.6253 0 0 1.6256 -172.25 -192.17)" style="stroke-width:.61522">
  <rect transform="matrix(1 .0016557 -.39523 .91858 0 0)" x="168.06" y="132.25" width="1.2164" height="17.631" rx="0" ry="0" style="fill-opacity:.73627;fill:#4e9a06;opacity:.97145;stroke-width:0"/>
  <rect transform="matrix(-1 .0016557 .39523 .91858 0 0)" x="-64.574" y="132.67" width="1.2164" height="17.631" rx="0" ry="0" style="fill-opacity:.73627;fill:#4e9a06;opacity:.97145;stroke-width:0"/>
  <path d="m113.48 127.14h5.8429l0.53796 1.2691h-6.9329z" style="fill-opacity:.73627;fill:#4e9a06;opacity:.95852;paint-order:fill markers stroke;stroke-width:.61522"/>
  <path d="m110.54 133.97h11.714l0.55601 1.2691h-12.816z" style="fill-opacity:.73627;fill:#4e9a06;opacity:.95852;paint-order:fill markers stroke;stroke-width:.61522"/>
  <path d="m121.73 122.53c-1.0163 0.34456-3.2672 0.54036-5.3312 0.54036-2.064 0-4.3148-0.1958-5.3312-0.54036-1.6427-0.55688 0.19722-1.344 5.3312-1.344 5.1339 0 6.9738 0.78717 5.3312 1.344z" style="fill-opacity:0;paint-order:fill markers stroke;stroke-dasharray:1.43246, 0.179057;stroke-linejoin:round;stroke-opacity:.73726;stroke-width:.17906;stroke:#4e9a06"/>
  <path d="m122.85 122.94c-1.2291 0.72454-3.9512 1.1363-6.4473 1.1363s-5.2182-0.41176-6.4473-1.1363c-1.9866-1.1711 0.23852-2.8264 6.4473-2.8264s8.4342 1.6553 6.4473 2.8264z" style="fill-opacity:0;paint-order:fill markers stroke;stroke-dasharray:1.43246, 0.179057;stroke-linejoin:round;stroke-opacity:.73726;stroke-width:.17906;stroke:#4e9a06"/>
  <path d="m124.31 123.29c-1.5078 0.9981-4.8467 1.5653-7.9089 1.5653s-6.401-0.56717-7.9089-1.5653c-2.4368-1.6131 0.29257-3.8933 7.9089-3.8933 7.6163 0 10.345 2.2802 7.9089 3.8933z" style="fill-opacity:0;paint-order:fill markers stroke;stroke-dasharray:1.43246, 0.179057;stroke-linejoin:round;stroke-opacity:.73726;stroke-width:.17906;stroke:#4e9a06"/>
 </g>
</svg>
