<svg width="128" height="128" version="1.1" viewBox="0 0 33.867 33.867" xmlns="http://www.w3.org/2000/svg">
 <g transform="translate(-99.467 -110.98)">
  <rect transform="matrix(1 .0016557 -.39523 .91858 0 0)" x="168.06" y="132.25" width="1.2164" height="17.631" rx="0" ry="0" style="fill-opacity:.73627;fill:#4e9a06;opacity:.97145;stroke-width:0"/>
  <rect transform="matrix(-1 .0016557 .39523 .91858 0 0)" x="-64.574" y="132.67" width="1.2164" height="17.631" rx="0" ry="0" style="fill-opacity:.73627;fill:#4e9a06;opacity:.97145;stroke-width:0"/>
  <path d="m113.48 127.14h5.8429l0.53796 1.2691h-6.9329z" style="fill-opacity:.73627;fill:#4e9a06;opacity:.95852;paint-order:fill markers stroke"/>
  <path d="m110.54 133.97h11.714l0.55601 1.2691h-12.816z" style="fill-opacity:.73627;fill:#4e9a06;opacity:.95852;paint-order:fill markers stroke"/>
  <path d="m123.06 122.69c-1.2703 0.43824-4.0836 0.68728-6.6634 0.68728s-5.3931-0.24904-6.6634-0.68728c-2.0532-0.7083 0.24651-1.7095 6.6634-1.7095s8.7166 1.0012 6.6634 1.7095z" style="fill-opacity:0;paint-order:fill markers stroke;stroke-dasharray:1.42875, 0.238124;stroke-linejoin:round;stroke-opacity:.73726;stroke-width:.23812;stroke:#4e9a06"/>
  <path d="m125.93 123.45c-1.8168 1.0841-5.8404 1.7002-9.53 1.7002s-7.7132-0.61609-9.53-1.7002c-2.9365-1.7522 0.35256-4.229 9.53-4.229s12.467 2.4768 9.53 4.229z" style="fill-opacity:0;paint-order:fill markers stroke;stroke-dasharray:1.42875, 0.238124;stroke-linejoin:round;stroke-opacity:.73726;stroke-width:.23812;stroke:#4e9a06"/>
  <path d="m128.44 123.97c-2.2951 1.5352-7.3777 2.4076-12.039 2.4076s-9.7436-0.8724-12.039-2.4076c-3.7094-2.4812 0.44536-5.9884 12.039-5.9884s15.748 3.5072 12.039 5.9884z" style="fill-opacity:0;paint-order:fill markers stroke;stroke-dasharray:1.42875, 0.238124;stroke-linejoin:round;stroke-opacity:.73726;stroke-width:.23812;stroke:#4e9a06"/>
 </g>
</svg>
