<svg width="128" height="128" version="1.1" viewBox="0 0 33.867 33.867" xmlns="http://www.w3.org/2000/svg">
 <g transform="translate(-99.467 -110.98)">
  <path d="m121.07 128.1c0 8.2104-4.0235 14.867-8.9866 14.867-4.9634 0-8.987-6.6562-8.987-14.867 0-8.2108 4.0235-14.867 8.987-14.867 4.9631 0 8.9866 6.6559 8.9866 14.867" fill="#fffffe" style="stroke-width:.26458"/>
  <path d="m112.03 144.85c7.3832 0 12.472-3.5075 12.472-16.908 0-13.401-5.0887-16.908-12.472-16.908-7.3832 0-12.474 3.5079-12.474 16.908s5.0911 16.908 12.474 16.908zm-1.6189-16.908-6.0447-6.0602 1.7516-1.7516 4.8166 4.8166v-11.544l8.7563 8.7563-5.7826 5.7825 5.7826 5.7826-8.7563 8.7562v-11.544l-4.8166 4.8166-1.7516-1.7516zm2.9844 8.558 2.7962-2.7957-2.7938-2.7942zm0-17.116 2.7962 2.7958-2.7938 2.7942z" fill="#0082fc" style="stroke-width:.26458"/>
  <rect x="116.15" y="132.91" width="16.387" height="9.6764" style="fill:#008000;paint-order:markers fill stroke;stroke-width:.26458;stroke:#008000"/>
  <rect x="115.55" y="131.48" width=".3399" height="11.621" style="fill:#4d4d4d;paint-order:markers fill stroke;stroke-width:.26458;stroke:#4d4d4d"/>
  <rect x="119.88" y="134.88" width="8.7658" height="6.3163" style="fill:#1a1a1a;paint-order:markers fill stroke;stroke-width:.26458;stroke:#1a1a1a"/>
  <rect x="116.43" y="142.59" width="15.496" height=".51867" style="fill:#fc0;paint-order:markers fill stroke;stroke-width:.26458;stroke:#fc0"/>
  <rect x="120.39" y="136.03" width="1.1775" height="3.6909" style="fill:#ccc;paint-order:markers fill stroke;stroke-width:.26458;stroke:#ccc"/>
  <g transform="matrix(2.137 0 0 2.6722 -145.27 -233.94)" style="stroke-width:.41847">
   <path d="m124.87 138.45h0.3082v1.3812h-0.3082z" style="color-rendering:auto;color:#000000;dominant-baseline:auto;fill:#ccc;font-feature-settings:normal;font-variant-alternates:normal;font-variant-caps:normal;font-variant-east-asian:normal;font-variant-ligatures:normal;font-variant-numeric:normal;font-variant-position:normal;font-variation-settings:normal;image-rendering:auto;inline-size:0;isolation:auto;mix-blend-mode:normal;paint-order:markers fill stroke;shape-margin:0;shape-padding:0;shape-rendering:auto;solid-color:#000000;stop-color:#000000;text-decoration-color:#000000;text-decoration-line:none;text-decoration-style:solid;text-indent:0;text-orientation:mixed;text-transform:none;white-space:normal"/>
   <path d="m124.73 138.32v1.6465l0.54636 0.42168c0.54537-0.51389 0.56382-1.7714 0.0354-2.354zm0.26562 0.26562h0.043v1.1152h-0.043z" style="color-rendering:auto;color:#000000;dominant-baseline:auto;fill:#ccc;font-feature-settings:normal;font-variant-alternates:normal;font-variant-caps:normal;font-variant-east-asian:normal;font-variant-ligatures:normal;font-variant-numeric:normal;font-variant-position:normal;font-variation-settings:normal;image-rendering:auto;inline-size:0;isolation:auto;mix-blend-mode:normal;paint-order:markers fill stroke;shape-margin:0;shape-padding:0;shape-rendering:auto;solid-color:#000000;stop-color:#000000;text-decoration-color:#000000;text-decoration-line:none;text-decoration-style:solid;text-indent:0;text-orientation:mixed;text-transform:none;white-space:normal"/>
  </g>
  <path d="m124.03 134.88-0.41509 0.29434c1.396 2.4271 0.50168 4.7502 0.0172 5.6936l0.32194 0.30257c1.1654-1.3732 1.2049-4.7334 0.0756-6.2905z" style="color-rendering:auto;color:#000000;dominant-baseline:auto;fill:#ccc;font-feature-settings:normal;font-variant-alternates:normal;font-variant-caps:normal;font-variant-east-asian:normal;font-variant-ligatures:normal;font-variant-numeric:normal;font-variant-position:normal;font-variation-settings:normal;image-rendering:auto;inline-size:0;isolation:auto;mix-blend-mode:normal;paint-order:markers fill stroke;shape-margin:0;shape-padding:0;shape-rendering:auto;solid-color:#000000;stop-color:#000000;text-decoration-color:#000000;text-decoration-line:none;text-decoration-style:solid;text-indent:0;text-orientation:mixed;text-transform:none;white-space:normal"/>
  <path d="m125.3 134.88-0.41509 0.29434c1.396 2.4271 0.50168 4.7502 0.0172 5.6936l0.32192 0.30259c1.1654-1.3732 1.2049-4.7334 0.0756-6.2905z" style="color-rendering:auto;color:#000000;dominant-baseline:auto;fill:#ccc;font-feature-settings:normal;font-variant-alternates:normal;font-variant-caps:normal;font-variant-east-asian:normal;font-variant-ligatures:normal;font-variant-numeric:normal;font-variant-position:normal;font-variation-settings:normal;image-rendering:auto;inline-size:0;isolation:auto;mix-blend-mode:normal;paint-order:markers fill stroke;shape-margin:0;shape-padding:0;shape-rendering:auto;solid-color:#000000;stop-color:#000000;text-decoration-color:#000000;text-decoration-line:none;text-decoration-style:solid;text-indent:0;text-orientation:mixed;text-transform:none;white-space:normal"/>
  <path d="m126.61 134.88-0.41509 0.29434c1.396 2.4271 0.50168 4.7502 0.0172 5.6936l0.32195 0.30258c1.1654-1.3732 1.2048-4.7334 0.0756-6.2905z" style="color-rendering:auto;color:#000000;dominant-baseline:auto;fill:#ccc;font-feature-settings:normal;font-variant-alternates:normal;font-variant-caps:normal;font-variant-east-asian:normal;font-variant-ligatures:normal;font-variant-numeric:normal;font-variant-position:normal;font-variation-settings:normal;image-rendering:auto;inline-size:0;isolation:auto;mix-blend-mode:normal;paint-order:markers fill stroke;shape-margin:0;shape-padding:0;shape-rendering:auto;solid-color:#000000;stop-color:#000000;text-decoration-color:#000000;text-decoration-line:none;text-decoration-style:solid;text-indent:0;text-orientation:mixed;text-transform:none;white-space:normal"/>
 </g>
</svg>
