<?xml version="1.0" encoding="UTF-8" standalone="no"?>
<svg
   xmlns:dc="http://purl.org/dc/elements/1.1/"
   xmlns:cc="http://creativecommons.org/ns#"
   xmlns:rdf="http://www.w3.org/1999/02/22-rdf-syntax-ns#"
   xmlns:svg="http://www.w3.org/2000/svg"
   xmlns="http://www.w3.org/2000/svg"
   xmlns:sodipodi="http://sodipodi.sourceforge.net/DTD/sodipodi-0.dtd"
   xmlns:inkscape="http://www.inkscape.org/namespaces/inkscape"
   width="128"
   height="128"
   viewBox="0 0 33.866667 33.866668"
   version="1.1"
   id="svg856"
   inkscape:version="1.0.2 (e86c870879, 2021-01-15)"
   sodipodi:docname="bluetooth.svg">
  <defs
     id="defs850" />
  <sodipodi:namedview
     id="base"
     pagecolor="#ffffff"
     bordercolor="#666666"
     borderopacity="1.0"
     inkscape:pageopacity="0.0"
     inkscape:pageshadow="2"
     inkscape:zoom="2.49"
     inkscape:cx="24.061313"
     inkscape:cy="106.79421"
     inkscape:document-units="px"
     inkscape:current-layer="layer1"
     inkscape:document-rotation="0"
     showgrid="false"
     units="px"
     inkscape:window-width="1920"
     inkscape:window-height="1003"
     inkscape:window-x="0"
     inkscape:window-y="0"
     inkscape:window-maximized="1" />
  <metadata
     id="metadata853">
    <rdf:RDF>
      <cc:Work
         rdf:about="">
        <dc:format>image/svg+xml</dc:format>
        <dc:type
           rdf:resource="http://purl.org/dc/dcmitype/StillImage" />
        <dc:title></dc:title>
      </cc:Work>
    </rdf:RDF>
  </metadata>
  <g
     inkscape:groupmode="layer"
     id="layer1"
     transform="translate(-99.467111,-110.97811)">
    <path
       d="m 125.2722,128.17319 c 0,8.21044 -4.02353,14.86667 -8.98661,14.86667 -4.96343,0 -8.98696,-6.65623 -8.98696,-14.86667 0,-8.2108 4.02353,-14.86667 8.98696,-14.86667 4.96308,0 8.98661,6.65587 8.98661,14.86667"
       id="Fill-11"
       fill="#fffffe"
       style="stroke-width:0.264583" />
    <path
       d="m 116.23331,144.91941 c 7.38322,0 12.47191,-3.50754 12.47191,-16.90803 0,-13.40051 -5.08871,-16.90842 -12.47191,-16.90842 -7.38321,0 -12.47428,3.50791 -12.47428,16.90842 0,13.40051 5.09108,16.90803 12.47428,16.90803 z m -1.61891,-16.90803 -6.04472,-6.0602 1.7516,-1.75157 4.81662,4.81664 v -11.5437 l 8.75627,8.75629 -5.78257,5.78254 5.78257,5.78257 -8.75627,8.75625 v -11.54368 l -4.81662,4.81661 -1.7516,-1.75157 z m 2.98441,8.55805 2.79617,-2.79574 -2.79378,-2.79417 z m 0,-17.11612 2.79617,2.79575 -2.79378,2.79417 z"
       id="Fill-12"
       fill="#0082fc"
       style="stroke-width:0.264582" />
  </g>
</svg>
