<svg width="128" height="128" version="1.1" viewBox="0 0 33.867 33.867" xmlns="http://www.w3.org/2000/svg">
 <g transform="translate(-99.467 -110.98)">
  <path d="m121.07 128.1c0 8.2104-4.0235 14.867-8.9866 14.867-4.9634 0-8.987-6.6562-8.987-14.867 0-8.2108 4.0235-14.867 8.987-14.867 4.9631 0 8.9866 6.6559 8.9866 14.867" fill="#fffffe" style="stroke-width:.26458"/>
  <path d="m112.03 144.85c7.3832 0 12.472-3.5075 12.472-16.908 0-13.401-5.0887-16.908-12.472-16.908-7.3832 0-12.474 3.5079-12.474 16.908s5.0911 16.908 12.474 16.908zm-1.6189-16.908-6.0447-6.0602 1.7516-1.7516 4.8166 4.8166v-11.544l8.7563 8.7563-5.7826 5.7825 5.7826 5.7826-8.7563 8.7562v-11.544l-4.8166 4.8166-1.7516-1.7516zm2.9844 8.558 2.7962-2.7957-2.7938-2.7942zm0-17.116 2.7962 2.7958-2.7938 2.7942z" fill="#0082fc" style="stroke-width:.26458"/>
  <rect x="110.44" y="126.69" width="21.426" height="12.883" style="fill:#4d4d4d;paint-order:normal;stroke-linejoin:round;stroke-width:1.3229;stroke:#ccc"/>
  <rect x="120.02" y="139.82" width="3.8081" height="4.1873" style="fill:#ccc;paint-order:markers fill stroke;stroke-width:.26458;stroke:#ccc"/>
  <ellipse cx="130.13" cy="139.59" rx=".47387" ry=".51697" style="fill:#0f0;paint-order:stroke markers fill;stroke-width:0"/>
  <rect x="117.41" y="144.26" width="8.762" height=".29543" style="fill:#ccc;paint-order:markers fill stroke;stroke-width:.26458;stroke:#ccc"/>
 </g>
</svg>
